<svg viewBox="0 0 501.34 361.71" xmlns="http://www.w3.org/2000/svg"><g fill="#f6f6f6"><path d="m260.69 245.89v-57.89h-20.37v61.47c0 6.58-4.53 7.47-9 7.47-8.17 0-9.27-3.78-9.27-7.47v-168.47c0-3.21 1-7.47 9.27-7.47 9 0 9 5.62 9 7.47v60.52h20.37v-56.9c0-19.86-11.3-31.71-30.23-31.71-19.39 0-31.46 12.15-31.46 31.71v161.27c0 19.86 11.75 31.71 31.44 31.71 19.23 0 30.25-11.55 30.25-31.71z"/><path d="m366.17 270.48c6 5.58 13.59 6.75 18.86 6.75 6.65 0 15.53-.88 20.63-7.67l4.3 7.67h10.7v-88.58l-28.44-4.46v22.11l5.67.91v39.49c0 6.62-2.42 9-9.26 9-7 0-9.28-2.18-9.28-9v-127.63c0-3.21 1-7.47 9.28-7.47 6.14 0 9.26 2.51 9.26 7.47v41.16h21v-37.57c0-19.86-11.3-31.71-30.22-31.71-19.46 0-32 12.44-32 31.71v120.46c-.01 12.35 3.21 21.56 9.5 27.36z"/><path d="m469.31 124.33c-19.46 0-32 12.45-32 31.71v89.44c0 19.57 12.27 31.72 32 31.72s32-12.15 32-31.72v-89.48c.03-19.22-12.54-31.67-32-31.67zm9.27 126.08c0 3.21-1 7.47-9.27 7.47s-9.31-3.78-9.31-7.47v-100.36c0-3.21 1-7.47 9.27-7.47 6.15 0 9.27 2.52 9.27 7.47z"/><path d="m29.05 277.61c15.41 0 29.67-3.51 29.67-28.92v-29.69h-20.81v33c0 3.36-1 6.47-8 6.47-7.31 0-8.32-3.11-8.32-6.47v-102.17c0-3 1-6.46 8.32-6.46 7.12 0 8 3.45 8 6.46v27.17h20.81v-23.87c0-25.92-16.93-28.92-29.67-28.92-17.92 0-29 11.08-29 28.92v95.56c-.05 18.11 10.81 28.92 29 28.92z"/><path d="m96.49 210.51 19.92-3.87v70.96h23v-277.6l-23 9.11v174.99l-19.92 3.87v-126.29l-21.56 9.27v206.65h21.56z"/><path d="m180 39.46-21.57-9.28v247.42h21.57z"/><path d="m328.85 46.36-40.31-12.72-15.37 244h21l4.56-67.15h18.69l3.44 67.08h21.45zm-28.79 141.48 6.94-123.94 2.52 1 6.84 123z"/><path d="m23 354.73c-5.9 0-10-4.91-10-10.81v-.1c0-5.9 4.18-10.72 10-10.72 3.45 0 6.15 1.48 8.81 3.89l4.81-5.56c-3.19-3.15-7.08-5.31-13.57-5.31a17.49 17.49 0 0 0 -17.94 17.8v.1a17.36 17.36 0 0 0 17.65 17.69 17.57 17.57 0 0 0 14.11-6.14l-4.82-4.87c-2.68 2.46-5.05 4.03-9.05 4.03z"/><path d="m64.9 340.33h-13.96v-13.62h-7.58v34.42h7.58v-13.82h13.96v13.82h7.57v-34.42h-7.57z"/><path d="m98.47 326.12c-10.62 0-18.34 8-18.34 17.8v.1c0 9.78 7.62 17.69 18.24 17.69s18.34-8 18.34-17.79v-.1c0-9.82-7.62-17.7-18.24-17.7zm10.32 17.88c0 5.9-4.23 10.71-10.32 10.71s-10.47-4.89-10.47-10.79v-.1c0-5.9 4.23-10.72 10.33-10.72s10.42 4.92 10.42 10.82z"/><path d="m140.87 326.12c-10.62 0-18.34 8-18.34 17.8v.1c0 9.78 7.62 17.69 18.24 17.69s18.34-8 18.34-17.79v-.1c0-9.82-7.62-17.7-18.24-17.7zm10.32 17.88c0 5.9-4.23 10.71-10.32 10.71s-10.43-4.91-10.43-10.81v-.1c0-5.9 4.23-10.72 10.33-10.72s10.42 4.92 10.42 10.82z"/><path d="m180 340.53c-5.95-1.53-7.42-2.27-7.42-4.53v-.1c0-1.67 1.52-3 4.42-3s5.9 1.27 8.95 3.39l3.93-5.71a19.91 19.91 0 0 0 -12.78-4.37c-7 0-12 4.13-12 10.37v.1c0 6.83 4.47 8.75 11.4 10.52 5.75 1.48 6.93 2.46 6.93 4.38v.1c0 2-1.86 3.24-5 3.24-3.94 0-7.18-1.62-10.28-4.18l-4.47 5.36a21.89 21.89 0 0 0 14.6 5.51c7.42 0 12.64-3.84 12.64-10.67v-.1c.08-5.99-3.92-8.5-10.92-10.31z"/><path d="m206.06 347.16h16.22v-6.73h-16.22v-6.99h18.44v-6.73h-25.96v34.42h26.2v-6.74h-18.68z"/><path d="m265.06 354.73c-5.9 0-10-4.91-10-10.81v-.1c0-5.9 4.18-10.72 10-10.72 3.44 0 6.15 1.48 8.8 3.89l4.82-5.56c-3.2-3.15-7.08-5.31-13.57-5.31a17.49 17.49 0 0 0 -18 17.8v.1a17.37 17.37 0 0 0 17.65 17.69 17.56 17.56 0 0 0 14.11-6.14l-4.81-4.87c-2.66 2.46-5.06 4.03-9 4.03z"/><path d="m306.93 340.33h-13.96v-13.62h-7.57v34.42h7.57v-13.82h13.96v13.82h7.57v-34.42h-7.57z"/><path d="m324.07 326.71h7.57v34.42h-7.57z"/><path d="m357.26 354.73c-5.9 0-10-4.91-10-10.81v-.1c0-5.9 4.18-10.72 10-10.72 3.44 0 6.14 1.48 8.8 3.89l4.82-5.56c-3.2-3.15-7.08-5.31-13.57-5.31a17.49 17.49 0 0 0 -17.95 17.8v.1a17.36 17.36 0 0 0 17.64 17.69 17.57 17.57 0 0 0 14.11-6.14l-4.82-4.87c-2.69 2.46-5.1 4.03-9.03 4.03z"/><path d="m389.61 326.46-14.75 34.67h7.72l3.14-7.72h14.55l3.15 7.72h7.92l-14.75-34.67zm-1.18 20.26 4.57-11.16 4.57 11.16z"/><path d="m431.57 347.85h7.62v4.92a12.14 12.14 0 0 1 -7.13 2.06c-6.1 0-10.42-4.62-10.42-10.91v-.1c0-5.85 4.37-10.72 9.88-10.72 4 0 6.34 1.28 9 3.49l4.76-5.75c-3.58-3-7.32-4.72-13.52-4.72a17.66 17.66 0 0 0 -18 17.8v.1c0 10.17 7.38 17.69 18.09 17.69a22.31 22.31 0 0 0 14.7-5.45v-14.95h-14.98z"/><path d="m471.49 326.12c-10.62 0-18.34 8-18.34 17.8v.1c0 9.78 7.62 17.69 18.24 17.69s18.34-8 18.34-17.79v-.1c0-9.82-7.62-17.7-18.24-17.7zm10.32 17.88c0 5.9-4.22 10.71-10.32 10.71s-10.42-4.91-10.42-10.81v-.1c0-5.9 4.22-10.72 10.32-10.72s10.42 4.92 10.42 10.82z"/></g></svg>